<?xml version="1.0" encoding="utf-8"?>
<!-- Generator: Adobe Illustrator 22.0.0, SVG Export Plug-In . SVG Version: 6.00 Build 0)  -->
<svg version="1.1" id="Layer_1" xmlns="http://www.w3.org/2000/svg" xmlns:xlink="http://www.w3.org/1999/xlink" x="0px" y="0px"
	 viewBox="0 0 416.5 75.7" style="enable-background:new 0 0 416.5 75.7;" xml:space="preserve">
<g>
	<path d="M23,4.7v9.8h-6.6v40.1H6.5V14.5H0V4.7H23z"/>
	<path d="M61.4,54.6H48.9L45,49.6c-0.6,0.4-1.2,0.8-1.9,1.2c-0.7,0.4-1.3,0.7-2,1l-3.8-9c3-1.3,5.2-3.2,6.7-5.7
		c1.5-2.5,2.2-5.1,2.2-7.9c0-2.9-0.8-5.7-2.5-8.3c-1.6-2.6-4.1-4.5-7.4-5.6v39.2h-9.8V4.7h4.9c7.5,0,13.4,2.5,17.9,7.6
		c4.4,5.1,6.7,10.8,6.7,17c0,0.5,0,0.9,0,1.4c0,0.5-0.1,0.9-0.1,1.4c-0.2,1.8-0.7,3.6-1.3,5.4c-0.6,1.8-1.5,3.5-2.6,5.2L61.4,54.6z"
		/>
	<path d="M88.4,54.6v-8.9H74.2v8.9h-9.8V32.1c0-7.5,2.7-14,8-19.3c5.4-5.4,11.8-8,19.3-8l6.4,0.5v4.5v44.9H88.4z M88.4,14.9
		c-4.1,0.8-7.5,2.8-10.2,6c-2.7,3.2-4,7-4,11.2v3.8h14.2V14.9z"/>
	<path d="M112.4,14.6v2.1h4.3v9.8h-4.3v28h-9.8V4.7h16.7v9.8H112.4z"/>
	<path d="M133,14.6v2.1h4.3v9.8H133v28h-9.8V4.7h16.7v9.8H133z"/>
	<path d="M143.4,54.6V4.7h9.8v49.8H143.4z"/>
	<path d="M192.1,54.6c-2.5,0.8-5.2,1.2-7.9,1.2c-7.2,0-13.4-2.6-18.6-7.7c-5.1-5.1-7.7-11.3-7.7-18.5c0-7.2,2.6-13.4,7.7-18.6
		c5.1-5.1,11.3-7.7,18.6-7.7c2.6,0,5.1,0.4,7.5,1.1c2.4,0.7,4.7,1.8,6.9,3.2l-5.4,8.2c-1.3-0.9-2.8-1.6-4.3-2
		c-1.5-0.4-3.1-0.7-4.7-0.7c-4.5,0-8.4,1.6-11.6,4.8c-3.2,3.2-4.8,7.1-4.8,11.6s1.6,8.4,4.8,11.6c3.2,3.2,7.1,4.8,11.6,4.8
		c1.7,0,3.3-0.3,4.9-0.8c1.6-0.5,3.1-1.2,4.4-2.2l5.6,8C197,52.7,194.6,53.9,192.1,54.6z"/>
	<path d="M242.1,54.6v-23c0-3.9-1.2-7.4-3.6-10.4c-2.4-3.1-5.5-5.1-9.3-6v39.5h-9.8V19c-1-0.9-2.1-1.7-3.4-2.4
		c-1.2-0.7-2.5-1.2-3.8-1.5v39.5h-9.8V4.7c0.2,0,0.4,0,0.6,0c0.2,0,0.4,0,0.6,0c1.4,0,2.8,0,4.1,0c1.3,0,2.6,0.1,4,0.3
		c1.3,0.1,2.6,0.4,3.8,0.7c1.3,0.3,2.6,0.8,4,1.5V4.7h5.6c7.4,0,13.7,2.6,18.9,7.9c5.2,5.2,7.9,11.6,7.9,18.9v23H242.1z"/>
	<path d="M274.6,54.6c-5.3,0-9.8-1.9-13.5-5.6c-3.7-3.7-5.6-8.2-5.6-13.4c0-3.4,0.8-6.5,2.4-9.3c1.6-2.8,3.8-5.1,6.4-6.8
		c-0.2-0.6-0.4-1.3-0.5-1.9c-0.1-0.6-0.2-1.3-0.2-2c0-3,1.1-5.5,3.2-7.7c2.1-2.1,4.7-3.2,7.7-3.2h5.4v9.8h-5.4
		c-0.4,0-0.6,0.1-0.8,0.3c-0.2,0.2-0.3,0.5-0.3,0.8c0,0,0,0.1,0,0.1c0,0.2,0.2,0.4,0.3,0.6c0.2,0.2,0.4,0.3,0.8,0.3h5.4v9.8h-6.6
		c-2.2,0.3-4.2,1.3-5.7,3c-1.6,1.7-2.4,3.7-2.4,6.1c0,2.5,0.9,4.7,2.7,6.5c1.8,1.8,4,2.7,6.5,2.7h5.4v9.8H274.6z"/>
	<path d="M284.5,54.6V4.7h9.8v49.8H284.5z"/>
	<path d="M308.6,17.1c-0.1,0.6-0.1,1.2-0.1,1.9c0,1.7,0.3,3.3,1,4.9c0.7,1.6,1.4,3.1,2.2,4.7c0.1,0.2,0.2,0.4,0.2,0.5
		c0.1,0.2,0.1,0.3,0.2,0.4c0.1,0.3,0.3,0.6,0.4,0.9c0.1,0.3,0.3,0.6,0.4,0.9c0.5,1.1,0.9,2.2,1.2,3.3c0.3,1.1,0.5,2.3,0.7,3.4
		c0,0.4,0.1,0.7,0.1,1.1c0,0.4,0,0.8,0,1.1c0,4-1.1,7.7-3.3,11.2c-2.1,3.5-5.1,6.2-9,8l-4.2-8.7c2.1-1,3.7-2.5,4.8-4.4
		c1.2-1.9,1.8-4,1.8-6.1c0-0.4,0-0.8-0.1-1.2c0-0.4-0.1-0.8-0.2-1.2c-0.1-0.4-0.2-0.8-0.3-1.2c-0.1-0.4-0.3-0.8-0.5-1.2l-3.4-7.1
		c-0.5-1-0.8-2-1.2-3c-0.3-1-0.5-2-0.7-3c0-0.5-0.1-1-0.1-1.5c0-0.5-0.1-1-0.1-1.5c0-4,1.1-7.7,3.2-11.2c2.2-3.5,5.1-6.2,8.9-8
		l4.2,8.9c-1.4,0.6-2.6,1.5-3.6,2.6c-1,1.1-1.8,2.4-2.3,3.8C308.9,15.9,308.7,16.5,308.6,17.1z"/>
	<path d="M342.1,4.7v9.8h-6.6v40.1h-9.8V14.5h-6.5V4.7H342.1z"/>
	<path d="M359.4,54.6c-5.3,0-9.8-1.9-13.5-5.6c-3.7-3.7-5.6-8.2-5.6-13.4c0-3.4,0.8-6.5,2.4-9.3c1.6-2.8,3.8-5.1,6.4-6.8
		c-0.2-0.6-0.4-1.3-0.5-1.9c-0.1-0.6-0.2-1.3-0.2-2c0-3,1.1-5.5,3.2-7.7c2.1-2.1,4.7-3.2,7.7-3.2h5.4v9.8h-5.4
		c-0.4,0-0.6,0.1-0.8,0.3c-0.2,0.2-0.3,0.5-0.3,0.8c0,0,0,0.1,0,0.1c0,0.2,0.2,0.4,0.3,0.6c0.2,0.2,0.4,0.3,0.8,0.3h5.4v9.8h-6.6
		c-2.2,0.3-4.2,1.3-5.7,3s-2.4,3.7-2.4,6.1c0,2.5,0.9,4.7,2.7,6.5c1.8,1.8,4,2.7,6.5,2.7h5.4v9.8H359.4z"/>
	<path d="M404.9,54.6h-12.5l-3.9-4.9c-0.6,0.4-1.2,0.8-1.9,1.2c-0.7,0.4-1.3,0.7-2,1l-3.8-9c3-1.3,5.2-3.2,6.7-5.7
		c1.5-2.5,2.2-5.1,2.2-7.9c0-2.9-0.8-5.7-2.5-8.3c-1.6-2.6-4.1-4.5-7.4-5.6v39.2H370V4.7h4.9c7.5,0,13.4,2.5,17.9,7.6
		c4.4,5.1,6.7,10.8,6.7,17c0,0.5,0,0.9,0,1.4c0,0.5-0.1,0.9-0.1,1.4c-0.2,1.8-0.7,3.6-1.3,5.4s-1.5,3.5-2.6,5.2L404.9,54.6z"/>
</g>
<polygon points="416.5,75.7 17.6,75.4 6,64.5 404.9,64.8 "/>
</svg>
